<svg width="29" height="29" viewBox="0 0 29 29" fill="none" xmlns="http://www.w3.org/2000/svg">
<g id="icons8-tiktok 1">
<g id="Group">
<g id="Group_2">
<path id="Vector" d="M23.78 2.32007H5.22001C3.62095 2.32007 2.32001 3.62101 2.32001 5.22007V23.7801C2.32001 25.3791 3.62095 26.6801 5.22001 26.6801H23.78C25.3791 26.6801 26.68 25.3791 26.68 23.7801V5.22007C26.68 3.62101 25.3791 2.32007 23.78 2.32007ZM21.4635 12.9474C21.3318 12.9596 21.1984 12.9677 21.0633 12.9677C19.542 12.9677 18.205 12.1853 17.4273 11.0027C17.4273 14.1051 17.4273 17.635 17.4273 17.6941C17.4273 20.4254 15.2128 22.6398 12.4816 22.6398C9.75039 22.6398 7.53595 20.4254 7.53595 17.6941C7.53595 14.9629 9.75039 12.7485 12.4816 12.7485C12.5848 12.7485 12.6858 12.7577 12.7873 12.7641V15.2013C12.6858 15.1891 12.586 15.1705 12.4816 15.1705C11.0873 15.1705 9.95745 16.3004 9.95745 17.6947C9.95745 19.089 11.0873 20.2189 12.4816 20.2189C13.8759 20.2189 15.1073 19.1203 15.1073 17.726C15.1073 17.6709 15.1316 6.36151 15.1316 6.36151H17.4609C17.6801 8.44429 19.3616 10.088 21.4635 10.2388V12.9474Z" fill="white"/>
</g>
</g>
</g>
</svg>
